<svg xmlns="http://www.w3.org/2000/svg" width="960" height="441" viewBox="0 0 960 441">
  <title>HTTPDesyncAttacks Whitepaper</title>
  <rect x="107.73" y="229.25" width="407.88" height="142.7" fill="#f2f2f2" />
  <rect x="401.68" y="155.36" width="511.99" height="30.73" fill="#e3e3e3" />
  <rect x="62.05" y="75.35" width="258.56" height="30.73" fill="#e3e3e3" />
  <text transform="translate(71.4 96.3)" font-size="24" fill="#333332" font-family="Courier">
    <tspan letter-spacing="0em">paypal.co</tspan>
    <tspan x="129.41" y="0">m/</tspan>
    <tspan x="158.21" y="0" letter-spacing="0em">sign</tspan>
    <tspan x="215.72" y="0">in</tspan>
  </text>
  <rect x="177.09" y="247.09" width="220.73" height="30.73" fill="#e3e3e3" />
  <text transform="translate(186.44 269.23)" font-size="24" fill="#333332" font-family="Courier">c.paypal.com/i</text>
  <text transform="translate(409.94 176.43)" font-size="24" fill="#333332" font-family="Courier">
    <tspan letter-spacing="0em">c.paypal.co</tspan>
    <tspan x="158.16" y="0">m</tspan>
    <tspan x="172.56" y="0" letter-spacing="0em">/f</tspan>
    <tspan x="201.32" y="0">b-</tspan>
    <tspan x="230.13" y="0" letter-spacing="0em">all.j</tspan>
    <tspan x="302.02" y="0">s</tspan>
  </text>
  <text transform="translate(787.14 176.43)" font-size="24" fill="#f63" font-family="Courier">
    <tspan letter-spacing="0em">evil.ne</tspan>
    <tspan x="100.65" y="0">t</tspan>
  </text>
  <rect x="107.73" y="229.25" width="50.74" height="142.7" fill="#4c5155" />
  <text transform="translate(142.49 343.79) rotate(-90)" font-size="24" fill="#fff" font-family="Verdana">IFRAME</text>
  <path d="M333.69,94.81s62.79,16.15,22.48,31.68c-37.26,14.35-70.9,16.52-45.54,53.61,17.43,25.48,38.09-2,63.84-6.92" fill="none" stroke="#4c5054" stroke-linecap="round" stroke-linejoin="round" stroke-width="2" />
  <path d="M374.72,164s3.72,9.7,3.55,15.19c-.1,3.55,3.76-4.49,9.23-7.33a7.71,7.71,0,0,0,3.82-4.88l-8.3-.75Z" fill="none" stroke="#4c5054" stroke-linecap="round" stroke-linejoin="round" stroke-width="2" />
  <path d="M421.41,203s-7.23-1.11-11-.17c-2.42.6.64-2.36,2.5-6.29.65-1.38,3.95-4.52,3.95-4.52l1.76,5.6Z" fill="none" stroke="#4c5054" stroke-linecap="round" stroke-linejoin="round" stroke-width="2" />
  <path d="M469.5,208.73s8-1.23,12.21-.19c2.69.67-.71-2.62-2.77-7-.73-1.54-4.39-5-4.39-5l-2,6.22Z" fill="none" stroke="#4c5054" stroke-linecap="round" stroke-linejoin="round" stroke-width="2" />
  <path d="M378.69,302.41s-8.43,3.23-13.21,3.09,10.62,11.34,10.62,11.34Z" fill="none" stroke="#f63" stroke-linecap="round" stroke-linejoin="round" stroke-width="2" />
  <path d="M764.58,163.11s1.55,8.59,0,12.58.69,3.58.69,3.58l10.57-6.49Z" fill="none" stroke="#333332" stroke-linecap="round" stroke-linejoin="round" stroke-width="2" />
  <path d="M737.23,168.32s3.71,1,12,0a47.37,47.37,0,0,1,13.35,0" fill="none" stroke="#333332" stroke-linecap="round" stroke-linejoin="round" stroke-width="2" />
  <path d="M764,173.24c-3.26.45-.08,0-7.28,0-.85,0-3.45-.39-7.35-.39-9.58,0-11.59.72-11.59.72" fill="none" stroke="#333332" stroke-linecap="round" stroke-linejoin="round" stroke-width="2" />
  <path d="M179.45,62.44S258.9,8,394.71,68.43c77.18,34.36,142.1,44,196.23,22.29C672.63,57.9,762.53,62.86,803.67,81c38.31,16.85,38.42,45.53,38.42,45.53" fill="none" stroke="#f63" stroke-linecap="round" stroke-linejoin="round" stroke-width="2" />
  <text transform="matrix(0.92, 0.4, -0.4, 0.92, 372.99, 49.13)" font-size="21" fill="#f63" font-family="Verdana-Bold, Verdana" font-weight="700">P</text>
  <text transform="matrix(0.92, 0.39, -0.39, 0.92, 387.03, 55.3)" font-size="21" fill="#f63" font-family="Verdana-Bold, Verdana" font-weight="700">A</text>
  <text transform="matrix(0.93, 0.36, -0.36, 0.93, 401.95, 61.58)" font-size="21" fill="#f63" font-family="Verdana-Bold, Verdana" font-weight="700">S</text>
  <text transform="translate(415.78 66.96) rotate(19.6)" font-size="21" fill="#f63" font-family="Verdana-Bold, Verdana" font-weight="700">S</text>
  <text transform="translate(429.69 72) rotate(17.42)" font-size="21" fill="#f63" font-family="Verdana-Bold, Verdana" font-weight="700">W</text>
  <text transform="matrix(0.97, 0.26, -0.26, 0.97, 452.15, 79)" font-size="21" fill="#f63" font-family="Verdana-Bold, Verdana" font-weight="700">O</text>
  <text transform="translate(469.27 83.55) rotate(12.6)" font-size="21" fill="#f63" font-family="Verdana-Bold, Verdana" font-weight="700">R</text>
  <text transform="translate(485.31 87.15) rotate(10.01)" font-size="21" fill="#f63" font-family="Verdana-Bold, Verdana" font-weight="700">D</text>
  <text transform="matrix(0.99, 0.14, -0.14, 0.99, 502.84, 90.15)" font-size="21" fill="#f63" font-family="Verdana-Bold, Verdana" font-weight="700"></text>
  <text transform="matrix(0.99, 0.11, -0.11, 0.99, 510.18, 91.16)" font-size="21" fill="#f63" font-family="Verdana-Bold, Verdana" font-weight="700">:</text>
  <text transform="translate(518.94 92.15) rotate(4.07)" font-size="21" fill="#f63" font-family="Verdana-Bold, Verdana" font-weight="700">)</text>
  <path d="M848.62,129.38s-7.92,1.79-12.16,1.06,8,11.46,8,11.46Z" fill="none" stroke="#f63" stroke-linecap="round" stroke-linejoin="round" stroke-width="1.8" />
  <path d="M318,171.76c1.26,6.36-5.65,11.75-12.14,11.75s-13-5.26-13-11.75,7.55-11.53,14-11.53S316.71,165.27,318,171.76Z" fill="#fff" stroke="#fff" stroke-miterlimit="10" stroke-width="9" />
  <path d="M320.61,164h0a151.38,151.38,0,0,0-28.29,17.23L290,182.65" fill="none" stroke="#fff" stroke-linecap="round" stroke-linejoin="round" stroke-width="5.3" />
  <path d="M318,171.76c1.26,6.36-5.65,11.75-12.14,11.75s-13-5.26-13-11.75,7.55-11.53,14-11.53S316.71,165.27,318,171.76Z" fill="none" stroke="#0071bc" stroke-linecap="round" stroke-linejoin="round" stroke-width="3" />
  <path d="M320.61,164h0c-15.09,9.79-19.52,10.47-28.29,17.23L290,182.65" fill="none" stroke="#0071bc" stroke-linecap="round" stroke-linejoin="round" stroke-width="3" />
  <path d="M351.74,280.3a23.31,23.31,0,0,1,15.32,8c5.5,6.68,4.56,15.07,4.56,15.07" fill="none" stroke="#f63" stroke-linecap="round" stroke-linejoin="round" stroke-width="2" />
  <path d="M403.19,253.89s28-16.91,19.89-33.86-6.56-14.95-6.56-14.95" fill="none" stroke="#4c5054" stroke-linecap="round" stroke-linejoin="round" stroke-width="2" />
  <path d="M418.39,264.76s10.5-1.89,19.33-17.67c7.11-12.71-.62-33.73-13.83-55.54" fill="none" stroke="#f63" stroke-linecap="round" stroke-linejoin="round" stroke-width="2" />
  <path d="M418.9,271.8s-3.76-8.2-3.93-13c-.11-3.07-2.59,1.56-6.61,5.1-1.42,1.25-4,6.23-4,6.23l7.24.18Z" fill="none" stroke="#f63" stroke-linecap="round" stroke-linejoin="round" stroke-width="2" />
  <path d="M445,359.11s-31.12,56.73-133.32,41.06C206,384,149.73,402.8,108.9,404.75S22.68,375.6,51.15,284.19c27.71-89,49.43-78.65,48.61-156.83" fill="none" stroke="#f63" stroke-linecap="round" stroke-linejoin="round" stroke-width="2" />
  <path d="M107.14,126.1s-3.39-7.39-3.54-11.69c-.1-2.77-2.33,1.41-5.95,4.59-1.28,1.12-3.62,5.6-3.62,5.6l6.52.17Z" fill="none" stroke="#f63" stroke-linecap="round" stroke-linejoin="round" stroke-width="2" />
  <path d="M192.23,125.8s-3.39-7.38-3.54-11.68c-.09-2.77-2.32,1.4-5.94,4.59-1.28,1.12-3.63,5.6-3.63,5.6l6.52.17Z" fill="none" stroke="#f63" stroke-linecap="round" stroke-linejoin="round" stroke-width="2" />
  <path d="M469.68,314.84s44.14-29.87,37.07-57-30.65-25.61-30.51-47.62" fill="none" stroke="#4c5054" stroke-linecap="round" stroke-linejoin="round" stroke-width="2" />
  <path d="M256.73,241.46s12.08-10.53-13.11-30-55.48-32.41-57.18-52.79a194.4,194.4,0,0,1,0-35" fill="none" stroke="#f63" stroke-linecap="round" stroke-linejoin="round" stroke-width="1.93" />
  <path d="M230.17,194.66c1.3,6.58-5.84,12.14-12.55,12.14s-13.39-5.43-13.39-12.14,7.8-11.92,14.51-11.92S228.85,188,230.17,194.66Z" fill="#fff" stroke="#fff" stroke-linecap="round" stroke-linejoin="round" stroke-width="9" />
  <path d="M232.88,186.64h0a157.17,157.17,0,0,0-29.25,17.82l-2.35,1.45" fill="none" stroke="#fff" stroke-linecap="round" stroke-linejoin="round" stroke-width="5.48" />
  <path d="M230.17,194.66c1.3,6.58-5.84,12.14-12.55,12.14s-13.39-5.43-13.39-12.14,7.8-11.92,14.51-11.92S228.85,188,230.17,194.66Z" fill="none" stroke="#0071bc" stroke-linecap="round" stroke-linejoin="round" stroke-width="3" />
  <path d="M232.88,186.64h0a157.17,157.17,0,0,0-29.25,17.82l-2.35,1.45" fill="none" stroke="#0071bc" stroke-linecap="round" stroke-linejoin="round" stroke-width="3" />
  <text transform="translate(325.03 161.76)" font-size="21" fill="#0071bc" font-family="Verdana-Bold, Verdana" font-weight="700">CSP</text>
  <text transform="translate(206.24 173.59)" font-size="21" fill="#0071bc" font-family="Verdana-Bold, Verdana" font-weight="700">SOP</text>
  <path d="M140.23,116.71c-1.4-10.23,2.79,39.12-1.73,60.88-3.92,18.84-1.74,30.59-1.74,30.59" fill="none" stroke="#4c5054" stroke-linecap="round" stroke-linejoin="round" stroke-width="2" />
  <path d="M145.25,207.61s-10.23,1.79-15.6.58c-3.45-.78,3.69,4.55,5.43,10.46a7.77,7.77,0,0,0,4.07,4.69l2.32-8Z" fill="none" stroke="#4c5054" stroke-linecap="round" stroke-linejoin="round" stroke-width="2" />
  <rect x="177.09" y="323.29" width="292.59" height="30.73" fill="#e3e3e3" />
  <text transform="translate(186.44 345.76)" font-size="24" fill="#333332" font-family="Courier">paypal.com/us/gifts</text>
  <path d="M495.51,324.17s-6-6.74-7.57-11.25c-1-2.91-2,2.25-4.82,6.81-1,1.61-2,7.13-2,7.13l7-1.95Z" fill="none" stroke="#f63" stroke-linecap="round" stroke-linejoin="round" stroke-width="2" />
  <path d="M495.48,194.77c7.2,29.09,20.83,22.08,32.6,47.52s-18.82,69.19-32,75.32-3.27,1.86-3.27,1.86" fill="none" stroke="#f63" stroke-linecap="round" stroke-linejoin="round" stroke-width="2" />
</svg>