<svg xmlns="http://www.w3.org/2000/svg" width="960" height="373" viewBox="0 0 960 373">
  <title>HTTPDesyncAttacks Whitepaper</title>
  <rect x="107.73" y="195.61" width="407.88" height="142.7" fill="#f2f2f2" />
  <rect x="401.68" y="121.72" width="511.99" height="30.73" fill="#e3e3e3" />
  <rect x="62.05" y="41.71" width="258.56" height="30.73" fill="#e3e3e3" />
  <text transform="translate(71.4 62.65)" font-size="24" fill="#333332" font-family="Courier">
    <tspan letter-spacing="0em">paypal.co</tspan>
    <tspan x="129.41" y="0">m/</tspan>
    <tspan x="158.21" y="0" letter-spacing="0em">sign</tspan>
    <tspan x="215.72" y="0">in</tspan>
  </text>
  <rect x="177.09" y="213.45" width="220.73" height="30.73" fill="#e3e3e3" />
  <text transform="translate(186.44 235.59)" font-size="24" fill="#333332" font-family="Courier">c.paypal.com/i</text>
  <text transform="translate(409.94 142.78)" font-size="24" fill="#333332" font-family="Courier">
    <tspan letter-spacing="0em">c.paypal.co</tspan>
    <tspan x="158.16" y="0">m</tspan>
    <tspan x="172.56" y="0" letter-spacing="0em">/f</tspan>
    <tspan x="201.32" y="0">b-</tspan>
    <tspan x="230.13" y="0" letter-spacing="0em">all.j</tspan>
    <tspan x="302.02" y="0">s</tspan>
  </text>
  <text transform="translate(787.14 142.78)" font-size="24" fill="#f63" font-family="Courier">
    <tspan letter-spacing="0em">evil.ne</tspan>
    <tspan x="100.65" y="0">t</tspan>
  </text>
  <rect x="107.73" y="195.61" width="50.74" height="142.7" fill="#4c5155" />
  <text transform="translate(142.49 310.16) rotate(-90)" font-size="24" fill="#fff" font-family="Verdana">IFRAME</text>
  <path d="M333.69,61.16s62.79,16.15,22.48,31.68c-37.26,14.36-70.9,16.52-45.54,53.61,17.43,25.49,38.09-2,63.84-6.91" fill="none" stroke="#4c5054" stroke-linecap="round" stroke-linejoin="round" stroke-width="2" />
  <path d="M374.72,130.36s3.72,9.7,3.55,15.2c-.1,3.54,3.76-4.49,9.23-7.33a7.71,7.71,0,0,0,3.82-4.89l-8.3-.75Z" fill="none" stroke="#4c5054" stroke-linecap="round" stroke-linejoin="round" stroke-width="2" />
  <path d="M421.41,169.37s-7.23-1.1-11-.17c-2.42.6.64-2.36,2.5-6.28.65-1.38,3.95-4.52,3.95-4.52l1.76,5.6Z" fill="none" stroke="#4c5054" stroke-linecap="round" stroke-linejoin="round" stroke-width="2" />
  <path d="M764.58,129.47s1.55,8.58,0,12.58.69,3.58.69,3.58l10.57-6.49Z" fill="none" stroke="#333332" stroke-linecap="round" stroke-linejoin="round" stroke-width="2" />
  <path d="M737.23,134.67s3.71,1,12,0a47.37,47.37,0,0,1,13.35,0" fill="none" stroke="#333332" stroke-linecap="round" stroke-linejoin="round" stroke-width="2" />
  <path d="M764,139.6c-3.26.45-.08,0-7.28,0-.85,0-3.45-.39-7.35-.39-9.58,0-11.59.73-11.59.73" fill="none" stroke="#333332" stroke-linecap="round" stroke-linejoin="round" stroke-width="2" />
  <path d="M318,138.11c1.26,6.37-5.65,11.76-12.14,11.76s-13-5.27-13-11.76,7.55-11.52,14-11.52S316.71,131.62,318,138.11Z" fill="#fff" stroke="#fff" stroke-miterlimit="10" stroke-width="9" />
  <path d="M320.61,130.36h0a152.44,152.44,0,0,0-28.29,17.23L290,149" fill="none" stroke="#fff" stroke-linecap="round" stroke-linejoin="round" stroke-width="5.3" />
  <path d="M318,138.11c1.26,6.37-5.65,11.76-12.14,11.76s-13-5.27-13-11.76,7.55-11.52,14-11.52S316.71,131.62,318,138.11Z" fill="none" stroke="#0071bc" stroke-linecap="round" stroke-linejoin="round" stroke-width="3" />
  <text transform="translate(325.03 128.11)" font-size="21" fill="#0071bc" font-family="Verdana-Bold, Verdana" font-weight="700">CSP</text>
  <text transform="translate(206.24 139.95)" font-size="21" fill="#0071bc" font-family="Verdana-Bold, Verdana" font-weight="700">SOP</text>
  <path d="M320.61,130.36h0c-15.09,9.8-19.52,10.48-28.29,17.23L290,149" fill="none" stroke="#0071bc" stroke-linecap="round" stroke-linejoin="round" stroke-width="3" />
  <path d="M403.19,220.25s28-16.91,19.89-33.86-6.56-14.95-6.56-14.95" fill="none" stroke="#4c5054" stroke-linecap="round" stroke-linejoin="round" stroke-width="2" />
  <path d="M418.39,231.12s10.5-1.9,19.33-17.67c7.11-12.71-.62-33.74-13.83-55.54" fill="none" stroke="#f63" stroke-linecap="round" stroke-linejoin="round" stroke-width="2" />
  <path d="M418.9,238.16s-3.76-8.2-3.93-13c-.11-3.08-2.59,1.56-6.61,5.1-1.42,1.24-4,6.22-4,6.22l7.24.19Z" fill="none" stroke="#f63" stroke-linecap="round" stroke-linejoin="round" stroke-width="2" />
  <path d="M192.23,92.16s-3.39-7.38-3.54-11.68c-.09-2.77-2.32,1.4-5.94,4.58-1.28,1.13-3.63,5.61-3.63,5.61l6.52.17Z" fill="none" stroke="#f63" stroke-linecap="round" stroke-linejoin="round" stroke-width="2" />
  <path d="M256.73,207.81s12.08-10.52-13.11-30-55.48-32.41-57.18-52.8a194.27,194.27,0,0,1,0-35" fill="none" stroke="#f63" stroke-linecap="round" stroke-linejoin="round" stroke-width="1.93" />
  <path d="M230.17,161c1.3,6.59-5.84,12.15-12.55,12.15s-13.39-5.44-13.39-12.15,7.8-11.91,14.51-11.91S228.85,154.3,230.17,161Z" fill="#fff" stroke="#fff" stroke-linecap="round" stroke-linejoin="round" stroke-width="9" />
  <path d="M232.88,153h0a157.66,157.66,0,0,0-29.25,17.81l-2.35,1.46" fill="none" stroke="#fff" stroke-linecap="round" stroke-linejoin="round" stroke-width="5.48" />
  <path d="M230.17,161c1.3,6.59-5.84,12.15-12.55,12.15s-13.39-5.44-13.39-12.15,7.8-11.91,14.51-11.91S228.85,154.3,230.17,161Z" fill="none" stroke="#0071bc" stroke-linecap="round" stroke-linejoin="round" stroke-width="3" />
  <path d="M232.88,153h0a157.66,157.66,0,0,0-29.25,17.81l-2.35,1.46" fill="none" stroke="#0071bc" stroke-linecap="round" stroke-linejoin="round" stroke-width="3" />
  <path d="M140.23,83.07c-1.4-10.23,2.79,39.12-1.73,60.87-3.92,18.85-1.74,30.6-1.74,30.6" fill="none" stroke="#4c5054" stroke-linecap="round" stroke-linejoin="round" stroke-width="2" />
  <path d="M145.25,174s-10.23,1.79-15.6.58c-3.45-.78,3.69,4.55,5.43,10.46a7.77,7.77,0,0,0,4.07,4.69l2.32-8Z" fill="none" stroke="#4c5054" stroke-linecap="round" stroke-linejoin="round" stroke-width="2" />
</svg>