<svg xmlns="http://www.w3.org/2000/svg" width="960" height="191" viewBox="0 0 960 191">
  <title>HTTPDesyncAttacks Whitepaper</title>
  <rect x="401.68" y="119.97" width="511.99" height="30.73" fill="#e3e3e3" />
  <rect x="62.05" y="39.95" width="258.56" height="30.73" fill="#e3e3e3" />
  <g style="isolation:isolate">
    <text transform="translate(71.4 60.9)" font-size="24" fill="#333332" font-family="Courier" style="isolation:isolate">paypal.co</text>
    <text transform="translate(200.81 60.9)" font-size="24" fill="#333332" font-family="Courier" style="isolation:isolate">m/</text>
    <text transform="translate(229.61 60.9)" font-size="24" fill="#333332" font-family="Courier" style="isolation:isolate">sign</text>
    <text transform="translate(287.12 60.9)" font-size="24" fill="#333332" font-family="Courier" style="isolation:isolate">in</text>
  </g>
  <g style="isolation:isolate">
    <text transform="translate(409.94 141.03)" font-size="24" fill="#333332" font-family="Courier" style="isolation:isolate">c.paypal.co</text>
    <text transform="translate(568.1 141.03)" font-size="24" fill="#333332" font-family="Courier" style="isolation:isolate">m</text>
    <text transform="translate(582.5 141.03)" font-size="24" fill="#333332" font-family="Courier" style="isolation:isolate">/f</text>
    <text transform="translate(611.26 141.03)" font-size="24" fill="#333332" font-family="Courier" style="isolation:isolate">b-</text>
    <text transform="translate(640.07 141.03)" font-size="24" fill="#333332" font-family="Courier" style="isolation:isolate">all.j</text>
    <text transform="translate(711.96 141.03)" font-size="24" fill="#333332" font-family="Courier" style="isolation:isolate">s</text>
  </g>
  <g style="isolation:isolate">
    <text transform="translate(787.14 141.03)" font-size="24" fill="#f63" font-family="Courier" style="isolation:isolate">evil.ne</text>
    <text transform="translate(887.79 141.03)" font-size="24" fill="#f63" font-family="Courier" style="isolation:isolate">t</text>
  </g>
  <path d="M333.69,59.41s62.79,16.15,22.48,31.68c-37.26,14.36-70.9,16.52-45.54,53.61,17.43,25.48,38.09-2,63.84-6.92" fill="none" stroke="#4c5054" stroke-linecap="round" stroke-linejoin="round" stroke-width="2" />
  <path d="M374.72,128.61s3.72,9.7,3.55,15.2c-.1,3.54,3.76-4.49,9.23-7.33a7.73,7.73,0,0,0,3.82-4.89l-8.3-.75Z" fill="none" stroke="#4c5054" stroke-linecap="round" stroke-linejoin="round" stroke-width="2" />
  <path d="M764.58,127.71s1.55,8.59,0,12.58.69,3.58.69,3.58l10.57-6.49Z" fill="none" stroke="#333332" stroke-linecap="round" stroke-linejoin="round" stroke-width="2" />
  <path d="M737.23,132.92s3.71,1,12,0a47.39,47.39,0,0,1,13.35,0" fill="none" stroke="#333332" stroke-linecap="round" stroke-linejoin="round" stroke-width="2" />
  <path d="M764,137.85c-3.26.45-.08,0-7.28,0-.85,0-3.45-.39-7.35-.39-9.58,0-11.59.73-11.59.73" fill="none" stroke="#333332" stroke-linecap="round" stroke-linejoin="round" stroke-width="2" />
  <path d="M318,136.36c1.26,6.37-5.65,11.75-12.14,11.75s-13-5.26-13-11.75,7.55-11.53,14-11.53S316.71,129.87,318,136.36Z" fill="#fff" stroke="#fff" stroke-miterlimit="10" stroke-width="9" />
  <path d="M320.61,128.61h0a151.38,151.38,0,0,0-28.29,17.23L290,147.25" fill="none" stroke="#fff" stroke-linecap="round" stroke-linejoin="round" stroke-width="5.3" />
  <path d="M318,136.36c1.26,6.37-5.65,11.75-12.14,11.75s-13-5.26-13-11.75,7.55-11.53,14-11.53S316.71,129.87,318,136.36Z" fill="none" stroke="#0071bc" stroke-linecap="round" stroke-linejoin="round" stroke-width="3" />
  <path d="M320.61,128.61h0c-15.09,9.79-19.52,10.47-28.29,17.23L290,147.25" fill="none" stroke="#0071bc" stroke-linecap="round" stroke-linejoin="round" stroke-width="3" />
  <text transform="translate(325.03 126.36)" font-size="21" fill="#0071bc" font-family="Verdana-Bold, Verdana" font-weight="700" style="isolation:isolate">CSP</text>
</svg>